<?xml version="1.0" standalone="no"?>
<!DOCTYPE svg PUBLIC "-//W3C//DTD SVG 20010904//EN"
 "http://www.w3.org/TR/2001/REC-SVG-20010904/DTD/svg10.dtd">
<svg version="1.0" xmlns="http://www.w3.org/2000/svg"
 width="400.000000pt" height="400.000000pt" viewBox="0 0 400.000000 400.000000"
 preserveAspectRatio="xMidYMid meet">
<metadata>
Created by potrace 1.14, written by Peter Selinger 2001-2017
</metadata>
<g transform="translate(0.000000,400.000000) scale(0.100000,-0.100000)"
fill="#000000" stroke="none">
<path d="M0 2000 l0 -2000 2000 0 2000 0 0 2000 0 2000 -2000 0 -2000 0 0
-2000z m2217 1569 c230 -31 468 -122 670 -256 109 -71 128 -109 80 -157 -20
-20 -36 -24 -127 -29 -429 -25 -811 -296 -975 -691 -51 -124 -75 -233 -85
-396 -11 -177 -23 -234 -65 -327 -67 -145 -175 -255 -320 -324 -108 -52 -181
-69 -296 -69 -197 0 -340 60 -484 205 -145 145 -195 270 -195 487 0 258 54
472 182 719 229 444 662 757 1153 834 101 16 359 18 462 4z m853 -914 c36 -9
103 -34 150 -57 69 -34 102 -59 175 -133 147 -146 195 -268 195 -497 0 -407
-165 -794 -470 -1098 -309 -310 -672 -460 -1110 -460 -328 0 -614 86 -887 267
-110 72 -128 109 -78 158 21 21 33 25 88 25 305 0 653 171 849 418 160 201
231 393 248 672 6 85 17 182 25 215 58 229 237 411 475 482 91 27 242 30 340
8z"/>
</g>
</svg>
