<svg width="1440" height="261" viewBox="0 0 1440 261" fill="none" xmlns="http://www.w3.org/2000/svg">
<g clip-path="url(#clip0_4382_10326)">
<path d="M161.532 291.738C236.022 243.464 330.056 192.144 438.472 170.707C482.97 161.915 523.411 158.926 561.147 158.639C585.731 158.409 609.332 159.501 633.056 160.708C659.238 162.03 685.051 164.443 711.848 167.029C761.508 171.742 815.224 176.512 879.88 179.041C925.238 180.822 974.775 182.029 1026.4 179.385C1032.18 179.098 1037.96 178.753 1043.73 178.293C1119.58 172.776 1193.57 156.513 1235 130.192C1248.77 121.456 1258.6 111.974 1264.99 102.262C1274.7 87.7793 1276.91 72.6648 1273.6 58.4125C1268.19 34.6776 1246.68 13.4715 1223.32 -8.2519C1196.52 -33.1936 1162.72 -61.1237 1123.39 -91.0077C1120.19 -93.4789 1116.87 -95.9501 1113.68 -98.4212C1088.35 -117.788 1063.28 -137.615 1050.62 -157.959C1045.09 -166.867 1041.89 -175.947 1041.77 -185.142C1041.64 -197.038 1047.91 -208.82 1060.33 -219.452C1082.58 -238.244 1127.93 -252.899 1175.75 -248.933" stroke="url(#paint0_linear_4382_10326)" stroke-opacity="0.5" stroke-width="0.1875" stroke-miterlimit="10"/>
<path d="M238.108 373.054C274.124 368.744 291.947 349.261 293.668 331.906C295.266 314.493 286.17 296.964 292.193 279.781C306.698 238.518 395.201 217.082 476.205 211.795C512.467 209.439 539.263 208.921 575.525 211.795C617.441 215.128 659.726 217.887 702.379 218.461C763.471 219.323 825.669 215.645 881.229 203.749C967.519 185.302 1032.42 143.751 1035 98.8678C1038.32 40.9387 953.383 -13.4847 968.748 -71.0114C980.303 -114.228 1049.14 -150.779 1131.99 -170.721C1214.84 -190.662 1310.1 -196.122 1403.27 -196.869" stroke="url(#paint1_linear_4382_10326)" stroke-opacity="0.5" stroke-width="0.1875" stroke-miterlimit="10"/>
<path d="M228.875 368.51C264.276 363.798 282.1 344.488 284.558 327.247C287.017 310.007 279.15 292.651 286.033 275.697C299.186 242.94 358.802 222.768 423.95 213.458C439.684 211.217 455.787 209.608 471.643 208.573C507.782 206.274 534.825 205.872 570.963 208.803C612.879 212.194 655.041 214.895 697.571 215.929C761.859 217.481 826.884 216.044 886.378 204.78C893.261 203.458 900.022 202.022 906.782 200.413C939.11 192.654 968.366 181.448 990.737 167.827C1007.95 157.311 1020.98 145.414 1029.21 133.116C1037.57 120.76 1040.64 107.944 1040.15 94.8989C1038.43 47.4293 982.133 2.43087 970.209 -44.1193C967.874 -53.3718 967.382 -62.6818 969.472 -72.1068C978.322 -110.324 1031.79 -143.484 1100.63 -164.632C1108.62 -167.104 1116.85 -169.402 1125.34 -171.529C1205.85 -191.873 1300.13 -198.079 1392.32 -198.597" stroke="url(#paint2_linear_4382_10326)" stroke-opacity="0.5" stroke-width="0.1875" stroke-miterlimit="10"/>
<path d="M219.768 364.025C254.432 358.911 272.378 339.773 275.574 322.648C278.77 305.522 272.378 288.338 279.999 271.615C294.627 239.317 354.243 219.318 419.391 210.123C435.248 207.881 451.228 206.33 467.084 205.353C503.1 203.111 530.389 202.824 566.404 205.755C608.197 209.146 650.359 211.904 692.767 213.341C760.25 215.582 828.102 216.329 891.406 205.698C898.782 204.433 906.034 203.054 913.163 201.502C947.704 193.916 979.418 182.25 1002.28 167.653C1019.98 156.389 1032.27 143.631 1039.16 130.585C1046.16 117.54 1046.78 104.207 1045.06 90.759C1039.16 44.2663 984.826 0.01501 971.674 -45.8455C969.092 -54.9831 968.232 -64.1207 970.076 -73.4307C977.328 -111.131 1027.97 -144.175 1094.59 -165.611C1102.34 -168.083 1110.33 -170.439 1118.56 -172.623C1196.86 -193.369 1289.92 -200.323 1381.25 -200.553" stroke="url(#paint3_linear_4382_10326)" stroke-opacity="0.5" stroke-width="0.1875" stroke-miterlimit="10"/>
<path d="M210.575 359.489C244.501 353.972 262.57 335.007 266.626 318.054C270.683 301.043 265.52 284.032 274.002 267.538C290.227 235.7 349.721 215.873 414.992 206.851C430.848 204.667 446.951 203.115 462.685 202.138C498.578 199.955 526.112 199.782 562.005 202.713C603.798 206.161 645.837 208.92 688.121 210.701C758.801 213.69 829.48 216.621 896.595 206.621C904.339 205.472 912.083 204.092 919.704 202.598C956.58 195.185 990.629 183.059 1014.11 167.484C1032.3 155.473 1043.85 141.796 1049.51 128.06C1055.16 114.325 1053.32 100.533 1050.25 86.6251C1040.53 41.1094 987.925 -2.39486 973.297 -47.5657C970.47 -56.5309 969.364 -65.6111 970.716 -74.7487C976.37 -111.931 1024.19 -144.804 1088.72 -166.527C1096.22 -169.056 1103.96 -171.412 1111.95 -173.653C1187.92 -194.859 1279.98 -202.503 1370.33 -202.503" stroke="url(#paint4_linear_4382_10326)" stroke-opacity="0.5" stroke-width="0.1875" stroke-miterlimit="10"/>
<path d="M201.481 354.949C234.67 348.972 252.862 330.237 257.656 313.399C262.45 296.56 258.64 279.722 267.982 263.401C285.682 232.022 345.176 212.368 410.447 203.46C426.303 201.276 442.406 199.782 458.14 198.863C494.033 196.794 521.69 196.621 557.337 199.61C599.13 203.115 641.046 205.931 683.207 208.058C757.083 211.793 830.589 216.908 901.515 207.483C909.75 206.391 917.863 205.069 925.976 203.575C965.064 196.334 1001.45 183.748 1025.54 167.197C1044.23 154.439 1055.04 139.842 1059.34 125.417C1063.65 110.992 1059.34 96.7972 1055.04 82.3724C1041.77 37.8337 990.509 -4.92343 974.652 -49.4047C971.579 -58.2549 970.104 -67.1626 971.088 -76.1853C975.144 -112.851 1020.26 -145.608 1082.45 -167.619C1089.71 -170.205 1097.2 -172.619 1104.95 -174.86C1178.7 -196.469 1269.66 -204.859 1359.03 -204.629" stroke="url(#paint5_linear_4382_10326)" stroke-opacity="0.5" stroke-width="0.1875" stroke-miterlimit="10"/>
<path d="M192.269 350.469C224.843 344.09 243.035 325.527 248.689 308.861C254.343 292.137 251.885 275.471 261.965 259.38C281.263 228.519 340.634 208.979 406.028 200.244C421.884 198.118 437.987 196.623 453.844 195.761C489.614 193.75 517.517 193.693 553.041 196.681C594.711 200.187 636.75 203.118 678.665 205.589C755.86 210.129 832.07 217.37 906.929 208.577C915.533 207.543 924.261 206.336 932.742 204.842C974.044 197.773 1012.89 184.727 1037.59 167.257C1056.65 153.751 1066.85 138.292 1069.8 123.12C1072.75 108.006 1066.11 93.4086 1060.46 78.4666C1043.99 34.9624 993.711 -7.10512 976.625 -50.8967C973.306 -59.5746 971.462 -68.3674 972.2 -77.2751C974.781 -113.423 1016.94 -146.008 1076.93 -168.306C1083.93 -170.893 1091.19 -173.364 1098.69 -175.663C1170.22 -197.673 1259.96 -206.753 1348.46 -206.294" stroke="url(#paint6_linear_4382_10326)" stroke-opacity="0.5" stroke-width="0.1875" stroke-miterlimit="10"/>
<path d="M183.153 345.925C214.99 339.143 233.305 320.753 239.697 304.202C246.212 287.593 244.982 271.157 255.922 255.296C276.819 224.894 336.067 205.585 401.583 196.907C417.44 194.781 433.543 193.344 449.399 192.482C485.046 190.528 513.195 190.585 548.596 193.574C590.267 197.137 632.182 200.125 674.098 202.941C754.489 208.286 833.527 217.596 912.196 209.435C921.292 208.458 930.388 207.309 939.361 205.872C982.998 198.918 1024.18 185.471 1049.38 167.023C1068.92 152.771 1078.38 136.392 1079.98 120.53C1081.58 104.669 1072.61 89.7267 1065.48 74.2675C1046.06 31.8551 996.642 -9.58021 978.081 -52.6822C974.394 -61.2451 972.427 -69.8655 972.673 -78.6583C973.656 -114.347 1013.11 -146.759 1070.76 -169.287C1077.52 -171.931 1084.53 -174.402 1091.78 -176.758C1160.99 -199.171 1249.74 -208.999 1337.13 -208.309" stroke="url(#paint7_linear_4382_10326)" stroke-opacity="0.5" stroke-width="0.1875" stroke-miterlimit="10"/>
<path d="M173.932 341.444C205.031 334.261 223.469 316.1 230.721 299.664C237.973 283.228 238.096 266.907 249.897 251.275C272.268 221.334 331.516 202.196 397.033 193.633C413.012 191.564 428.992 190.128 444.849 189.323C480.373 187.427 508.767 187.599 544.046 190.587C585.593 194.208 627.509 197.311 669.302 200.357C752.888 206.506 834.753 217.943 917.233 210.414C926.82 209.552 936.285 208.403 945.75 207.024C991.6 200.242 1035.11 186.335 1061.05 166.91C1081.09 151.911 1089.81 134.612 1090.06 118.119C1090.43 101.568 1079.12 86.2232 1070.51 70.2468C1048.39 28.8689 999.467 -11.8769 979.676 -54.2317C975.743 -62.6222 973.407 -71.1277 973.284 -79.7481C972.67 -114.919 1009.3 -147.16 1064.74 -170.032C1071.25 -172.676 1078.01 -175.205 1084.9 -177.618C1151.89 -200.434 1239.53 -211.008 1325.94 -210.088" stroke="url(#paint8_linear_4382_10326)" stroke-opacity="0.5" stroke-width="0.1875" stroke-miterlimit="10"/>
<path d="M164.831 336.908C195.192 329.322 213.753 311.334 221.743 295.013C229.856 278.691 231.331 262.542 243.746 247.141C267.592 217.659 326.84 198.694 392.48 190.304C408.459 188.235 424.562 186.855 440.296 186.051C475.697 184.212 504.337 184.442 539.37 187.545C580.917 191.166 622.71 194.441 664.38 197.775C751.285 204.786 835.854 218.291 922.144 211.337C932.101 210.533 942.058 209.441 952.137 208.119C1000.2 201.51 1046.17 187.143 1072.72 166.799C1093.25 151.052 1101.24 132.834 1100.13 115.651C1099.15 98.4102 1085.63 82.6636 1075.55 66.1699C1050.97 25.8264 1002.29 -14.2297 981.269 -55.8949C977.09 -64.1705 974.509 -72.5035 974.017 -81.009C971.804 -115.663 1005.61 -147.788 1058.96 -170.891C1065.22 -173.592 1071.62 -176.178 1078.38 -178.592C1143.03 -201.867 1229.57 -213.131 1315.12 -211.924" stroke="url(#paint9_linear_4382_10326)" stroke-opacity="0.5" stroke-width="0.1875" stroke-miterlimit="10"/>
<path d="M155.62 332.364C185.244 324.376 203.928 306.561 212.778 290.412C221.628 274.205 224.456 258.286 237.731 243.057C263.176 214.035 322.3 195.243 387.94 186.967C403.92 184.956 420.022 183.576 435.879 182.829C471.28 181.048 500.044 181.392 534.953 184.496C576.377 188.174 618.17 191.564 659.718 195.185C749.818 203.058 837.215 218.575 927.439 212.253C937.887 211.506 948.335 210.472 958.783 209.15C1009.06 202.714 1057.37 187.886 1084.53 166.565C1105.43 150.129 1112.8 130.992 1110.34 113.061C1108.01 95.131 1092.28 78.9822 1080.6 61.9712C1053.68 22.6623 1005.25 -16.7042 982.753 -57.6798C978.328 -65.783 975.378 -74.0586 974.517 -82.3916C970.83 -116.528 1001.81 -148.481 1052.82 -171.929C1058.72 -174.687 1064.99 -177.273 1071.5 -179.745C1133.95 -203.422 1219.37 -215.433 1303.94 -213.996" stroke="url(#paint10_linear_4382_10326)" stroke-opacity="0.5" stroke-width="0.1875" stroke-miterlimit="10"/>
<path d="M146.536 327.876C175.545 319.485 194.229 301.842 203.817 285.808C213.527 269.775 217.584 253.97 231.72 238.971C258.639 210.409 317.764 191.789 383.527 183.628C399.506 181.674 415.609 180.295 431.466 179.548C466.744 177.881 495.876 178.283 530.54 181.387C571.964 185.065 613.634 188.628 655.058 192.536C748.355 201.271 838.456 218.857 932.613 213.167C943.43 212.478 954.37 211.558 965.31 210.236C1017.92 203.972 1068.56 188.685 1096.34 166.387C1117.73 149.204 1124.37 129.147 1120.68 110.527C1116.99 91.9071 1099.17 75.3559 1085.9 57.8278C1056.89 19.4958 1008.33 -19.1236 984.609 -59.4095C979.938 -67.3978 976.742 -75.5009 975.512 -83.719C970.227 -117.339 998.376 -149.177 1047.18 -172.854C1052.83 -175.612 1058.85 -178.256 1065.12 -180.785C1125.35 -204.864 1209.68 -217.623 1293.26 -215.956" stroke="url(#paint11_linear_4382_10326)" stroke-opacity="0.5" stroke-width="0.1875" stroke-miterlimit="10"/>
<path d="M137.3 323.34C165.572 314.547 184.378 297.076 194.704 281.157C205.152 265.238 210.683 249.607 225.557 234.837C253.952 206.735 313.076 188.287 378.839 180.299C394.819 178.345 410.921 177.023 426.778 176.333C461.933 174.724 491.311 175.241 525.852 178.345C567.276 182.08 608.823 185.758 650.248 189.896C746.863 199.551 839.668 219.148 937.636 214.033C948.945 213.459 960.253 212.539 971.685 211.275C1026.51 205.183 1079.61 189.436 1107.88 166.219C1129.76 148.288 1135.66 127.312 1130.62 108.002C1125.58 88.6927 1105.79 71.7393 1090.8 53.6939C1059.82 16.3963 1011.02 -21.5334 986.067 -61.1297C981.15 -68.9456 977.585 -76.9338 975.987 -85.037C969.104 -118.197 994.548 -149.805 1041.01 -173.77C1046.42 -176.586 1052.2 -179.229 1058.22 -181.815C1116.12 -206.297 1199.33 -219.745 1282.06 -217.848" stroke="url(#paint12_linear_4382_10326)" stroke-opacity="0.5" stroke-width="0.1875" stroke-miterlimit="10"/>
<path d="M128.21 318.792C155.744 309.597 174.551 292.299 185.86 276.553C197.168 260.749 203.929 245.347 219.663 230.807C249.533 203.164 308.657 184.889 374.543 177.016C390.645 175.119 406.625 173.855 422.482 173.165C457.514 171.614 487.138 172.246 521.556 175.349C562.857 179.142 604.404 182.993 645.706 187.36C745.517 197.935 841.15 219.486 943.051 215.06C954.851 214.543 966.652 213.681 978.452 212.474C1035.49 206.555 1090.92 190.349 1119.93 166.154C1142.31 147.477 1147.34 125.638 1141.08 105.581C1134.68 85.5821 1112.93 68.1689 1096.21 49.6638C1063.39 13.3432 1014.34 -23.8394 987.917 -62.7461C982.754 -70.447 978.944 -78.2628 976.854 -86.251C968.372 -118.894 990.99 -150.329 1035.36 -174.639C1040.53 -177.455 1046.06 -180.213 1051.84 -182.799C1107.52 -207.684 1189.63 -221.879 1271.37 -219.752" stroke="url(#paint13_linear_4382_10326)" stroke-opacity="0.5" stroke-width="0.1875" stroke-miterlimit="10"/>
<path d="M118.98 314.323C145.777 304.668 164.706 287.6 176.753 271.968C188.799 256.336 196.912 241.049 213.506 226.74C244.974 199.614 303.976 181.454 369.984 173.695C386.087 171.799 402.189 170.592 418.046 169.902C452.955 168.408 482.825 169.098 516.997 172.259C558.298 176.052 599.722 180.132 640.901 184.73C743.908 196.223 842.368 219.786 948.079 215.935C960.249 215.476 972.541 214.671 984.833 213.464C1044.08 207.66 1101.98 191.051 1131.48 165.88C1154.22 146.455 1158.64 123.697 1151.02 102.951C1143.28 82.2043 1119.55 64.4463 1100.99 45.4239C1066.45 10.0229 1016.92 -26.3552 989.258 -64.5723C983.849 -72.1008 979.67 -79.8016 977.335 -87.6749C967.255 -119.8 987.045 -151.121 1029.21 -175.66C1034.12 -178.534 1039.41 -181.292 1044.94 -183.936C1098.29 -209.28 1179.42 -224.165 1260.17 -221.751" stroke="url(#paint14_linear_4382_10326)" stroke-opacity="0.5" stroke-width="0.1875" stroke-miterlimit="10"/>
<path d="M109.909 309.779C136.091 299.722 155.021 282.826 167.928 267.367C180.834 251.85 190.176 236.793 207.631 222.656C240.451 195.99 299.453 178.002 365.461 170.416C381.564 168.577 397.666 167.37 413.523 166.738C448.433 165.302 478.425 166.106 512.474 169.267C553.653 173.117 595.077 177.37 636.133 182.197C742.336 194.668 843.623 220.185 953.145 216.966C965.806 216.564 978.467 215.817 991.25 214.668C1052.83 209.036 1113.06 191.967 1143.18 165.876C1166.41 145.704 1170.1 122.027 1161.13 100.591C1152.15 79.155 1126.46 60.9373 1106.06 41.3977C1069.8 6.91614 1019.77 -28.6573 990.881 -66.1273C985.227 -73.5409 980.802 -81.0693 977.975 -88.8277C966.42 -120.436 983.383 -151.584 1023.21 -176.468C1027.88 -179.342 1032.92 -182.158 1038.21 -184.859C1089.34 -210.605 1169.24 -226.237 1249.14 -223.593" stroke="url(#paint15_linear_4382_10326)" stroke-opacity="0.5" stroke-width="0.1875" stroke-miterlimit="10"/>
<path d="M100.674 305.239C126.118 294.78 145.171 278.056 158.815 262.712C172.582 247.31 183.154 232.426 201.469 218.518C235.887 192.312 294.888 174.497 361.02 167.026C377.122 165.187 393.225 164.037 409.082 163.405C443.868 162.083 474.107 162.945 508.033 166.106C549.211 170.014 590.512 174.382 631.445 179.439C740.721 192.887 844.958 220.3 958.291 217.714C971.321 217.426 984.473 216.737 997.749 215.587C1061.54 210.128 1124.11 192.599 1154.96 165.531C1178.69 144.613 1181.64 120.016 1171.31 97.9475C1160.99 75.8219 1133.58 57.1443 1111.2 37.145C1073.47 3.52547 1022.82 -31.186 992.463 -67.9663C986.563 -75.2075 981.769 -82.621 978.573 -90.2069C965.42 -121.298 979.556 -152.331 1017.17 -177.445C1021.6 -180.376 1026.27 -183.192 1031.43 -185.951C1080.35 -212.099 1159.14 -228.478 1238.06 -225.605" stroke="url(#paint16_linear_4382_10326)" stroke-opacity="0.5" stroke-width="0.1875" stroke-miterlimit="10"/>
<path d="M91.5781 300.755C116.285 289.893 135.461 273.342 149.965 258.17C164.47 242.941 176.516 228.171 195.569 214.493C231.462 188.747 290.464 171.104 356.595 163.748C372.698 161.967 388.8 160.817 404.657 160.242C439.321 158.978 469.805 159.955 503.608 163.173C544.786 167.081 585.842 171.679 626.898 176.966C739.37 191.448 846.434 220.758 963.7 218.804C977.221 218.574 990.865 217.942 1004.51 216.85C1070.52 211.563 1135.54 193.575 1166.89 165.53C1191.1 143.864 1193.32 118.405 1181.64 95.5895C1169.96 72.7742 1140.83 53.5795 1116.37 33.1779C1077.16 0.420354 1025.77 -33.4291 994.184 -69.5198C988.038 -76.646 982.876 -83.9446 979.434 -91.3581C964.683 -121.989 976.115 -152.793 1011.39 -178.194C1015.57 -181.183 1020 -184.056 1024.91 -186.815C1071.5 -213.365 1149.31 -230.491 1227.24 -227.33" stroke="url(#paint17_linear_4382_10326)" stroke-opacity="0.5" stroke-width="0.1875" stroke-miterlimit="10"/>
<path d="M82.3789 296.218C106.348 284.954 125.647 268.576 140.889 253.519C156.254 238.404 169.53 223.864 189.32 210.417C226.688 185.13 285.69 167.659 351.944 160.476C368.169 158.694 384.272 157.602 400.006 157.085C434.546 155.878 465.277 156.913 498.834 160.188C539.889 164.154 580.945 168.981 621.877 174.441C737.546 189.958 847.437 221.163 968.514 219.784C982.404 219.612 996.539 219.037 1010.8 218.003C1079.02 212.888 1146.5 194.44 1178.46 165.418C1203.17 143.063 1204.64 116.627 1191.61 93.1218C1178.59 69.6168 1147.85 49.9048 1121.3 29.101C1080.62 -2.7945 1028.62 -35.7819 995.679 -71.183C989.287 -78.1368 983.879 -85.3204 979.945 -92.619C963.597 -122.733 972.201 -153.421 1005.39 -179.11C1009.2 -182.099 1013.5 -185.03 1018.17 -187.846C1062.55 -214.799 1139.13 -232.614 1216.2 -229.281" stroke="url(#paint18_linear_4382_10326)" stroke-opacity="0.5" stroke-width="0.1875" stroke-miterlimit="10"/>
<path d="M73.2749 291.734C96.6298 280.068 115.928 263.861 131.908 248.977C148.011 233.977 162.638 219.61 183.289 206.392C222.132 181.565 281.134 164.324 347.388 157.198C363.613 155.474 379.716 154.382 395.573 153.865C430.113 152.716 460.967 153.865 494.401 157.141C535.456 161.164 576.389 166.163 617.199 171.853C735.94 188.404 848.781 221.506 973.668 220.702C988.05 220.587 1002.55 220.07 1017.31 219.035C1087.86 214.093 1157.56 195.185 1190.13 165.244C1215.21 142.141 1216.07 114.786 1201.81 90.5914C1187.43 66.3968 1155.1 46.1676 1126.46 24.9615C1084.3 -6.12943 1031.56 -38.1973 997.269 -72.9088C990.631 -79.7476 984.854 -86.7588 980.552 -93.9425C962.728 -123.539 968.383 -154.055 999.359 -180.032C1002.92 -183.077 1006.98 -186.008 1011.41 -188.824C1053.44 -216.237 1129.04 -234.742 1205.13 -231.179" stroke="url(#paint19_linear_4382_10326)" stroke-opacity="0.5" stroke-width="0.1875" stroke-miterlimit="10"/>
<path d="M64.0479 287.187C86.6652 275.118 106.087 259.084 122.927 244.314C139.89 229.487 155.747 215.235 177.258 202.247C217.576 177.88 276.578 160.812 342.955 153.8C359.18 152.076 375.283 151.042 391.14 150.582C425.557 149.49 456.656 150.754 489.968 154.03C530.9 158.053 571.833 163.283 612.52 169.145C734.334 186.73 850.125 221.672 978.946 221.557C993.82 221.557 1008.69 221.039 1023.94 220.062C1096.7 215.292 1168.86 195.983 1202.05 165.007C1227.61 141.157 1227.74 112.94 1212.13 87.9979C1196.39 63.1137 1162.47 42.3099 1131.61 20.7589C1088.1 -9.58491 1034.51 -40.6758 998.982 -74.6976C992.099 -81.364 986.076 -88.2604 981.405 -95.3291C961.983 -124.409 964.933 -154.81 993.574 -181.073C996.892 -184.119 1000.7 -187.108 1004.88 -189.981C1044.71 -217.796 1119.2 -237.048 1194.3 -233.198" stroke="url(#paint20_linear_4382_10326)" stroke-opacity="0.5" stroke-width="0.1875" stroke-miterlimit="10"/>
<path d="M54.9434 282.65C76.8232 270.18 96.3676 254.318 113.945 239.721C131.646 225.009 148.855 210.986 171.226 198.171C213.019 174.263 272.021 157.367 338.521 150.529C354.747 148.862 370.849 147.827 386.706 147.368C421.001 146.333 452.346 147.713 485.534 150.988C526.467 155.069 567.154 160.471 607.84 166.562C732.728 185.24 851.469 222.02 984.1 222.48C999.343 222.538 1014.83 222.135 1030.44 221.158C1105.42 216.561 1180.04 196.791 1213.72 164.838C1239.78 140.241 1239.16 111.105 1222.2 85.4733C1205.11 59.842 1169.71 38.4634 1136.64 16.6251C1091.78 -12.9716 1037.45 -43.0856 1000.57 -76.3603C993.442 -82.9118 987.051 -89.6357 982.011 -96.5894C960.991 -125.152 961.114 -155.381 987.542 -181.931C990.615 -185.035 994.18 -188.023 997.991 -190.954C1035.48 -219.171 1108.86 -239.171 1183.11 -235.09" stroke="url(#paint21_linear_4382_10326)" stroke-opacity="0.5" stroke-width="0.1875" stroke-miterlimit="10"/>
<path d="M45.7222 278.169C66.8645 265.296 86.5318 249.607 104.97 235.125C123.531 220.528 141.969 206.678 165.201 194.092C208.592 170.644 267.471 153.921 333.971 147.197C350.197 145.53 366.299 144.553 382.156 144.151C416.328 143.232 447.918 144.668 480.984 147.944C521.794 152.082 562.48 157.714 603.167 163.978C731.128 183.747 852.696 222.367 989.261 223.459C1004.99 223.574 1020.85 223.229 1036.95 222.309C1114.27 217.827 1191.1 197.655 1225.51 164.783C1252.07 139.439 1250.71 109.382 1232.4 83.0612C1214.08 56.7403 1177.08 34.7295 1141.81 12.6039C1095.59 -16.3032 1040.4 -45.3827 1002.17 -77.9678C994.792 -84.3469 988.155 -90.9558 982.746 -97.7947C960.129 -125.84 957.547 -155.954 981.64 -182.734C984.467 -185.838 987.786 -188.941 991.351 -191.872C1026.63 -220.492 1098.91 -241.238 1172.17 -236.928" stroke="url(#paint22_linear_4382_10326)" stroke-opacity="0.5" stroke-width="0.1875" stroke-miterlimit="10"/>
<path d="M36.6177 273.629C57.0225 260.297 76.8127 244.895 95.9883 230.47C115.287 216.045 135.077 202.31 159.17 189.954C203.913 166.909 262.915 150.415 329.538 143.806C345.886 142.197 361.989 141.22 377.845 140.818C411.894 139.956 443.731 141.45 476.551 144.783C517.36 148.921 557.801 154.783 598.488 161.277C729.521 182.196 854.04 222.539 994.415 224.263C1010.52 224.436 1026.87 224.148 1043.46 223.286C1122.99 218.976 1202.27 198.345 1237.18 164.495C1264.1 138.404 1262.14 107.428 1242.47 80.4751C1222.8 53.4646 1184.45 30.8216 1146.71 8.40863C1099.14 -19.8663 1043.09 -47.8538 1003.63 -79.7493C995.89 -86.0134 989.007 -92.4499 983.23 -99.1738C959.137 -126.759 953.606 -156.643 975.608 -183.769C978.19 -186.929 981.14 -190.033 984.582 -193.021C1017.65 -222.043 1088.82 -243.537 1161.1 -238.939" stroke="url(#paint23_linear_4382_10326)" stroke-opacity="0.5" stroke-width="0.1875" stroke-miterlimit="10"/>
<path d="M27.4326 269.093C47.2228 255.358 67.0131 240.129 87.0491 225.876C107.208 211.567 128.228 198.004 153.18 185.935C199.399 163.35 258.4 147.028 325.023 140.592C341.372 139.04 357.475 138.063 373.331 137.718C407.38 136.914 439.34 138.523 472.037 141.856C512.846 146.052 553.164 152.086 593.728 158.81C727.834 180.878 855.303 223.003 999.612 225.359C1016.21 225.646 1033.05 225.359 1050.01 224.497C1131.75 220.359 1213.49 199.268 1249.02 164.442C1276.43 137.604 1273.73 105.766 1252.71 78.0653C1231.69 50.3652 1191.98 26.9751 1151.91 4.38972C1102.99 -23.1955 1046.2 -50.1486 1005.39 -81.3544C997.399 -87.4462 990.27 -93.8253 984.001 -100.377C958.311 -127.445 949.952 -157.214 969.742 -184.569C972.078 -187.788 974.782 -190.891 977.978 -193.937C1008.71 -223.419 1078.77 -245.544 1150.19 -240.774" stroke="url(#paint24_linear_4382_10326)" stroke-opacity="0.5" stroke-width="0.1875" stroke-miterlimit="10"/>
<path d="M18.3311 264.605C37.3838 250.468 57.2969 235.411 78.0705 221.273C99.09 207.078 121.339 193.745 147.152 181.849C194.845 159.724 253.847 143.575 320.593 137.253C336.941 135.701 353.044 134.782 368.901 134.495C402.827 133.747 435.032 135.471 467.606 138.862C508.293 143.115 548.488 149.379 589.052 156.218C726.108 179.435 856.65 223.342 1004.77 226.273C1021.86 226.618 1039.06 226.388 1056.52 225.583C1140.47 221.618 1224.55 200.067 1260.81 164.321C1288.72 136.736 1285.27 103.978 1262.9 75.5885C1240.53 47.1987 1199.48 23.119 1157.07 0.303717C1106.67 -26.7068 1049.14 -52.5106 1006.98 -83.0268C998.746 -89.0036 991.248 -95.2102 984.733 -101.589C957.445 -128.14 946.382 -157.737 963.837 -185.437C965.926 -188.655 968.385 -191.816 971.335 -194.919C999.852 -224.803 1068.81 -247.676 1139.24 -242.676" stroke="url(#paint25_linear_4382_10326)" stroke-opacity="0.5" stroke-width="0.1875" stroke-miterlimit="10"/>
<path d="M9.10693 260.065C27.4221 245.525 47.4582 230.641 69.0922 216.676C90.8492 202.596 114.573 189.435 141.124 177.769C190.292 156.103 249.294 140.127 316.04 133.92C332.388 132.426 348.491 131.564 364.348 131.219C398.151 130.529 430.602 132.368 463.053 135.759C503.739 140.012 543.812 146.506 584.253 153.574C724.259 177.941 857.874 223.572 1009.8 227.135C1027.26 227.537 1044.96 227.422 1062.91 226.618C1149.2 222.825 1235.61 200.814 1272.36 164.091C1300.76 135.816 1296.58 102.082 1272.98 73.0024C1249.25 43.923 1206.97 19.0962 1161.98 -3.89148C1110.23 -30.3273 1051.84 -54.9817 1008.45 -84.8082C999.97 -90.6126 992.226 -96.7044 985.22 -102.969C956.333 -129.002 942.443 -158.484 957.685 -186.414C959.406 -189.69 961.742 -192.908 964.446 -196.011C990.628 -226.298 1058.6 -249.917 1128.05 -244.63" stroke="url(#paint26_linear_4382_10326)" stroke-opacity="0.5" stroke-width="0.1875" stroke-miterlimit="10"/>
<path d="M0 255.529C68.221 197.657 172.703 143.176 311.481 130.591C406.499 121.97 491.805 135.246 579.448 150.935C738.876 179.44 890.437 235.012 1069.41 227.714C1157.91 224.093 1246.78 201.623 1284.15 163.923C1312.92 134.901 1308.12 100.304 1283.17 70.4778C1258.09 40.6513 1214.58 15.0774 1167.13 -8.02521C1114.03 -33.8864 1054.9 -57.3913 1010.16 -86.5282C965.419 -115.665 935.672 -152.331 951.897 -187.387C968 -222.443 1041.63 -252.729 1117.23 -246.638" stroke="url(#paint27_linear_4382_10326)" stroke-opacity="0.5" stroke-width="0.1875" stroke-miterlimit="10"/>
<path d="M23.1011 260.698C92.3054 204.205 195.313 150.184 329.665 136.334C385.348 130.645 437.221 132.599 488.11 138.116C521.298 141.736 554.118 146.851 587.184 152.368C623.814 158.46 659.953 165.988 696.337 173.862C763.698 188.401 831.796 203.918 904.196 213.171C955.085 219.665 1007.94 223.17 1063.38 220.814C1069.52 220.527 1075.79 220.182 1081.94 219.78C1163.07 213.975 1241.49 192.884 1277.26 159.15C1289.18 147.943 1295.82 135.817 1298.16 123.519C1301.6 105.128 1295.33 86.1635 1281.93 68.8078C1259.68 39.9007 1219.36 14.9016 1175.24 -8.02865C1125.95 -33.7174 1070.38 -57.912 1026.38 -87.1064C1022.81 -89.5201 1019.25 -91.9338 1015.81 -94.405C989.134 -113.715 968.73 -135.496 962.952 -157.679C960.494 -167.391 960.74 -177.218 964.673 -186.988C969.59 -199.516 981.882 -211.47 999.091 -221.47C1029.82 -239.285 1077.15 -250.836 1125.45 -246.928" stroke="url(#paint28_linear_4382_10326)" stroke-opacity="0.5" stroke-width="0.1875" stroke-miterlimit="10"/>
<path d="M46.0796 265.871C116.144 210.758 217.677 157.254 347.727 142.024C401.566 135.818 451.595 136.967 500.148 141.507C531.985 144.495 563.207 148.921 594.674 153.691C629.584 158.978 664.001 165.702 698.788 172.655C763.198 185.586 828.838 199.264 900.009 207.424C949.915 213.114 1002.28 216.275 1056.98 213.861C1063.12 213.574 1069.27 213.229 1075.29 212.826C1155.56 207.08 1233.25 186.793 1269.88 154.265C1282.05 143.461 1289.3 131.795 1292.25 119.899C1296.67 102.141 1291.88 83.8079 1280.2 67.0268C1260.78 38.9818 1223.54 14.6723 1182.97 -8.08549C1137.37 -33.6019 1085.5 -58.4286 1042.23 -87.7954C1038.66 -90.2091 1035.22 -92.6228 1031.78 -95.094C1005.35 -114.461 984.21 -135.897 977.326 -157.736C974.376 -167.333 974.007 -177.045 977.326 -186.7C981.382 -199.113 992.691 -211.01 1009.16 -221.124C1038.54 -239.112 1085.5 -251.123 1133.68 -247.273" stroke="url(#paint29_linear_4382_10326)" stroke-opacity="0.5" stroke-width="0.1875" stroke-miterlimit="10"/>
<path d="M69.186 271.043C140.111 217.31 240.169 164.151 365.916 147.772C417.912 140.99 465.974 141.335 512.438 144.956C542.799 147.312 572.546 151.048 602.539 155.128C635.727 159.61 668.424 165.472 701.613 171.564C763.073 182.828 826.377 194.782 896.196 201.793C945.241 206.735 996.991 209.436 1051.08 207.023C1057.1 206.735 1063.12 206.39 1069.27 205.988C1148.67 200.299 1225.62 180.817 1263.24 149.553C1275.77 139.151 1283.4 127.945 1287.08 116.509C1292.61 99.3827 1289.17 81.7396 1279.22 65.4183C1262.62 38.2354 1228.45 14.558 1191.33 -8.02742C1149.54 -33.4288 1101.23 -58.8878 1058.7 -88.312C1055.26 -90.7258 1051.81 -93.1969 1048.49 -95.6681C1022.31 -115.035 1000.31 -136.126 992.32 -157.735C988.878 -167.217 987.895 -176.757 990.476 -186.355C993.672 -198.653 1004 -210.549 1019.61 -220.779C1047.51 -238.882 1094.1 -251.467 1142.28 -247.559" stroke="url(#paint30_linear_4382_10326)" stroke-opacity="0.5" stroke-width="0.1875" stroke-miterlimit="10"/>
<path d="M92.3208 276.216C164.106 223.804 262.689 171.162 384.134 153.519C434.286 146.22 480.381 145.76 524.633 148.347C553.519 150.071 581.668 153.117 610.185 156.507C641.653 160.185 672.629 165.185 704.22 170.415C762.73 180.07 823.576 190.184 892.165 196.046C940.227 200.184 991.485 202.54 1044.96 200.069C1050.98 199.782 1056.88 199.437 1062.9 198.977C1141.45 193.345 1217.66 174.668 1256.26 144.611C1269.04 134.611 1277.28 123.865 1281.7 112.831C1288.22 96.3944 1286.25 79.326 1277.89 63.5794C1264.12 37.2585 1233.15 14.2133 1199.47 -8.14227C1161.48 -33.3713 1116.74 -59.5198 1075.07 -89.059C1071.63 -91.4727 1068.31 -93.9439 1064.99 -96.4151C1038.93 -115.782 1016.32 -136.586 1007.1 -157.85C1003.04 -167.16 1001.69 -176.642 1003.53 -186.125C1005.99 -198.308 1015.21 -210.204 1030.08 -220.491C1056.63 -238.767 1102.85 -251.87 1150.91 -247.962" stroke="url(#paint31_linear_4382_10326)" stroke-opacity="0.5" stroke-width="0.1875" stroke-miterlimit="10"/>
<path d="M115.288 281.385C187.934 230.352 285.041 178.112 402.185 159.205C450.493 151.389 494.621 150.125 536.783 151.734C564.317 152.768 590.868 155.182 617.788 157.826C647.534 160.757 676.79 164.837 706.782 169.205C762.342 177.193 820.853 185.526 888.09 190.296C935.292 193.687 985.935 195.641 1038.79 193.112C1044.69 192.825 1050.59 192.48 1056.49 192.02C1134.05 186.445 1209.65 168.515 1249.11 139.723C1262.26 130.126 1270.99 119.839 1276.03 109.264C1283.65 93.4602 1283.03 77.0814 1276.4 61.7946C1265.33 36.3357 1237.55 13.9227 1207.31 -8.26048C1173.02 -33.3746 1131.96 -60.1552 1091.03 -89.8094C1087.71 -92.2231 1084.39 -94.6942 1081.08 -97.1654C1055.26 -116.533 1031.91 -136.992 1021.46 -157.968C1016.91 -167.163 1014.94 -176.473 1016.17 -185.841C1017.77 -197.967 1026.01 -209.805 1040.02 -220.207C1065.1 -238.655 1111.07 -252.275 1159.13 -248.367" stroke="url(#paint32_linear_4382_10326)" stroke-opacity="0.5" stroke-width="0.1875" stroke-miterlimit="10"/>
<path d="M138.428 286.558C212.058 236.904 307.567 185.124 420.408 164.953C466.872 156.62 509.157 154.493 548.983 155.183C575.042 155.585 600.118 157.309 625.44 159.263C653.343 161.389 681 164.608 709.395 168.113C762.005 174.492 818.056 181.044 884.065 184.665C930.406 187.251 980.435 188.86 1032.68 186.216C1038.58 185.929 1044.35 185.584 1050.25 185.124C1126.96 179.55 1201.69 162.481 1242.26 134.954C1255.65 125.816 1265 115.874 1270.77 105.759C1279.38 90.5873 1280.24 74.8407 1275.32 60.1286C1267.09 35.5317 1242.38 13.6934 1215.58 -8.25987C1185.1 -33.259 1147.61 -60.6144 1107.41 -90.3835C1104.09 -92.7972 1100.9 -95.2684 1097.58 -97.7971C1072.01 -117.164 1047.8 -137.336 1036.24 -157.967C1031.2 -166.99 1028.62 -176.243 1029.11 -185.495C1029.85 -197.506 1037.1 -209.287 1050.38 -219.804C1073.98 -238.424 1119.7 -252.562 1167.64 -248.654" stroke="url(#paint33_linear_4382_10326)" stroke-opacity="0.5" stroke-width="0.1875" stroke-miterlimit="10"/>
<path d="M184.513 296.91C259.864 250.015 352.546 199.155 456.537 176.397C499.19 167.087 537.664 163.294 573.188 162.03C596.42 161.168 618.423 161.57 640.672 162.03C665.133 162.604 689.225 164.099 714.424 165.823C761.134 168.926 812.392 171.857 875.819 173.294C920.316 174.328 969.239 175.133 1020.25 172.432C1026.03 172.144 1031.68 171.742 1037.34 171.34C1112.32 165.88 1185.58 150.363 1227.99 125.307C1242 116.974 1252.32 107.951 1259.58 98.6986C1270.27 84.8485 1273.96 70.3662 1272.36 56.6886C1269.78 33.8158 1251.34 13.1843 1231.43 -8.30917C1208.32 -33.1934 1178.2 -61.6981 1139.61 -91.6396C1136.41 -94.1108 1133.21 -96.582 1130.02 -99.0532C1104.82 -118.478 1079.13 -137.96 1065.24 -158.017C1059.22 -166.752 1055.41 -175.775 1054.67 -184.855C1053.69 -196.693 1058.97 -208.417 1070.53 -219.107C1091.3 -238.014 1136.41 -253.243 1184.1 -249.278" stroke="url(#paint34_linear_4382_10326)" stroke-opacity="0.5" stroke-width="0.1875" stroke-miterlimit="10"/>
<path d="M207.628 302.079C283.839 256.563 375.046 206.163 474.735 182.141C515.545 172.313 552.175 167.658 585.363 165.417C607.12 163.923 627.648 163.636 648.299 163.406C671.039 163.176 693.411 163.865 717.011 164.67C760.771 166.164 809.694 167.314 871.769 167.543C915.282 167.773 963.836 168.233 1013.99 165.475C1019.64 165.187 1025.3 164.785 1030.95 164.383C1105.07 158.981 1177.59 144.268 1220.99 120.419C1235.37 112.488 1246.18 103.925 1254.05 95.0747C1265.85 81.8568 1271.01 68.0067 1271.01 54.8462C1271.26 32.8355 1255.9 12.7212 1239.55 -8.48496C1220.25 -33.3692 1193.7 -62.3911 1155.84 -92.4476C1152.77 -94.9188 1149.57 -97.3899 1146.37 -99.9186C1121.42 -119.343 1094.87 -138.48 1079.87 -158.25C1073.36 -166.87 1068.93 -175.721 1067.46 -184.743C1065.61 -196.467 1069.92 -208.191 1080.73 -218.995C1100.16 -238.075 1144.9 -253.821 1192.47 -249.856" stroke="url(#paint35_linear_4382_10326)" stroke-opacity="0.5" stroke-width="0.1875" stroke-miterlimit="10"/>
<path d="M230.718 307.248C307.79 263.112 397.522 213.171 492.908 187.827C531.874 177.482 566.537 172.023 597.636 168.805C617.918 166.678 636.971 165.701 656.024 164.782C677.043 163.747 697.694 163.575 719.697 163.517C760.506 163.402 806.97 162.713 867.816 161.851C910.469 161.276 958.409 161.334 1007.95 158.575C1013.48 158.288 1019.13 157.885 1024.66 157.483C1097.92 152.138 1169.71 138.231 1213.96 115.645C1228.71 108.117 1240.02 100.014 1248.5 91.6233C1261.28 79.095 1267.92 65.877 1269.64 53.2338C1272.59 32.0851 1260.55 12.4881 1247.52 -8.37327C1232.03 -33.2 1209.04 -62.7967 1172.04 -92.9681C1168.97 -95.4393 1165.9 -97.9105 1162.7 -100.439C1138 -119.864 1110.71 -138.714 1094.48 -158.138C1087.48 -166.586 1082.44 -175.379 1080.35 -184.287C1077.64 -195.896 1080.96 -207.562 1090.92 -218.481C1108.86 -237.733 1153.36 -253.997 1200.93 -250.032" stroke="url(#paint36_linear_4382_10326)" stroke-opacity="0.5" stroke-width="0.1875" stroke-miterlimit="10"/>
<path d="M253.719 312.421C331.773 269.664 419.907 220.183 510.992 193.574C548.114 182.713 580.811 176.449 609.697 172.253C628.627 169.495 646.081 167.828 663.536 166.162C682.958 164.38 701.764 163.288 722.169 162.369C760.029 160.587 804.157 158.116 863.651 156.162C905.321 154.84 952.768 154.495 1001.69 151.679C1007.22 151.334 1012.75 150.99 1018.16 150.587C1090.44 145.3 1161.61 132.14 1206.85 110.819C1221.84 103.75 1233.76 96.049 1242.98 88.0607C1256.75 76.1646 1264.86 63.5788 1268.18 51.4528C1273.96 31.1661 1265.11 12.0863 1255.4 -8.4877C1243.72 -33.3719 1224.3 -63.3709 1188.04 -93.6572C1185.09 -96.1284 1182.02 -98.657 1178.82 -101.128C1154.24 -120.553 1126.21 -139.058 1108.88 -158.195C1101.38 -166.528 1095.73 -175.149 1093.02 -183.999C1089.46 -195.493 1091.67 -207.159 1101.01 -218.193C1117.48 -237.618 1161.73 -254.399 1209.18 -250.376" stroke="url(#paint37_linear_4382_10326)" stroke-opacity="0.5" stroke-width="0.1875" stroke-miterlimit="10"/>
<path d="M276.823 317.594C355.738 276.158 442.397 227.195 529.179 199.322C564.457 187.943 595.31 180.874 621.984 175.702C639.439 172.311 655.418 169.955 671.275 167.599C688.976 165.013 706.062 163.059 724.868 161.277C759.778 157.887 801.571 153.634 859.712 150.531C900.522 148.404 947.355 147.715 995.663 144.841C1001.07 144.496 1006.6 144.151 1012.01 143.749C1083.43 138.462 1153.74 126.164 1199.96 106.049C1215.32 99.3828 1227.74 92.1417 1237.57 84.6132C1252.44 73.3492 1261.91 61.4531 1266.95 49.8443C1275.55 30.4197 1270.02 11.8571 1263.63 -8.37207C1255.76 -33.2563 1239.91 -63.7725 1204.38 -94.1738C1201.43 -96.6449 1198.48 -99.1736 1195.29 -101.645C1170.95 -121.069 1142.18 -139.287 1123.62 -158.137C1115.51 -166.298 1109.36 -174.861 1105.92 -183.596C1101.5 -195.032 1102.73 -206.641 1111.21 -217.733C1126.2 -237.33 1170.21 -254.571 1217.53 -250.605" stroke="url(#paint38_linear_4382_10326)" stroke-opacity="0.5" stroke-width="0.1875" stroke-miterlimit="10"/>
<path d="M299.924 322.766C379.7 282.71 464.884 234.263 547.241 205.012C580.675 193.173 609.561 185.185 634.023 179.035C650.002 175.013 664.507 171.967 678.889 168.921C694.868 165.53 710.233 162.772 727.442 160.013C759.402 154.956 798.736 148.922 855.649 144.726C895.598 141.795 941.816 140.761 989.509 137.772C994.918 137.428 1000.33 137.083 1005.61 136.681C1076.17 131.451 1145.74 119.957 1192.94 101.107C1208.55 94.8429 1221.46 88.0615 1232.15 80.9354C1248.01 70.361 1258.95 59.0396 1265.71 47.948C1277.14 29.4429 1274.93 11.2826 1271.73 -8.60177C1267.8 -33.5434 1255.39 -64.5194 1220.6 -94.9781C1217.77 -97.5068 1214.82 -99.9779 1211.63 -102.507C1187.53 -121.931 1158.03 -139.804 1138.24 -158.367C1129.64 -166.412 1122.88 -174.803 1118.82 -183.423C1113.54 -194.745 1113.78 -206.354 1121.53 -217.503C1135.17 -237.272 1178.68 -255.03 1226.01 -251.065" stroke="url(#paint39_linear_4382_10326)" stroke-opacity="0.5" stroke-width="0.1875" stroke-miterlimit="10"/>
<path d="M322.919 327.946C403.555 289.269 487.264 241.283 565.318 210.766C596.909 198.411 623.829 189.618 646.2 182.492C660.828 177.836 673.734 174.044 686.518 170.308C700.777 166.113 714.421 162.492 730.032 158.872C759.041 152.205 796.04 144.332 851.601 138.987C890.566 135.309 936.293 133.815 983.371 130.827C988.657 130.482 993.943 130.137 999.351 129.735C1069.05 124.562 1137.88 113.816 1186.07 96.2301C1202.05 90.3683 1215.45 84.0466 1226.75 77.3802C1243.72 67.438 1256.01 56.7487 1264.37 46.2318C1278.63 28.5888 1279.73 10.8882 1279.86 -8.65132C1279.98 -33.6505 1270.88 -65.0862 1236.96 -95.6598C1234.13 -98.1885 1231.18 -100.66 1228.11 -103.188C1204.26 -122.67 1173.9 -140.199 1153 -158.416C1143.91 -166.29 1136.53 -174.623 1131.86 -183.128C1125.71 -194.335 1124.98 -205.886 1131.86 -217.207C1144.03 -237.149 1187.3 -255.424 1234.5 -251.459" stroke="url(#paint40_linear_4382_10326)" stroke-opacity="0.5" stroke-width="0.1875" stroke-miterlimit="10"/>
<path d="M346.023 333.108C427.519 295.81 509.753 248.341 583.506 216.445C613.252 203.572 638.328 193.975 658.364 185.872C671.517 180.584 682.948 176.102 694.134 171.677C706.672 166.677 718.595 162.194 732.485 157.712C758.545 149.379 793.085 139.724 847.416 133.287C885.522 128.805 930.633 126.966 976.974 123.92C982.26 123.575 987.423 123.23 992.708 122.828C1061.54 117.713 1129.64 107.771 1178.69 91.3921C1194.91 85.9325 1208.93 80.0132 1220.97 73.8065C1238.92 64.4965 1252.69 54.4968 1262.76 44.4397C1279.73 27.6012 1284.4 10.4753 1287.59 -8.71946C1291.77 -33.7761 1286 -65.6141 1252.81 -96.3601C1250.1 -98.8888 1247.15 -101.417 1244.2 -103.889C1220.48 -123.371 1189.5 -140.554 1167.38 -158.484C1157.79 -166.243 1149.8 -174.403 1144.39 -182.851C1137.39 -194 1135.67 -205.494 1141.81 -216.873C1152.51 -236.93 1195.53 -255.78 1242.73 -251.757" stroke="url(#paint41_linear_4382_10326)" stroke-opacity="0.5" stroke-width="0.1875" stroke-miterlimit="10"/>
<path d="M369.124 338.284C451.604 302.366 532.24 255.356 601.69 222.196C629.593 208.863 652.702 198.346 670.648 189.324C682.326 183.347 692.282 178.232 701.87 173.117C712.687 167.313 722.89 161.968 735.182 156.624C758.291 146.682 790.496 135.245 843.598 127.659C880.72 122.43 925.34 120.188 971.066 117.085C976.229 116.74 981.392 116.395 986.554 115.993C1054.41 110.936 1121.89 101.798 1171.92 86.6836C1188.51 81.6838 1203.02 76.1668 1215.68 70.4198C1234.73 61.7994 1249.85 52.3745 1261.65 42.8921C1281.44 26.9731 1289.55 10.2495 1295.82 -8.60041C1304.18 -33.7145 1301.6 -66.0122 1269.15 -96.8158C1266.44 -99.3444 1263.62 -101.873 1260.67 -104.402C1237.19 -123.884 1205.48 -140.78 1182.12 -158.365C1172.04 -166.009 1163.44 -174.054 1157.41 -182.388C1149.55 -193.422 1146.84 -204.915 1152.13 -216.409C1161.59 -236.639 1204.12 -256.006 1251.2 -251.983" stroke="url(#paint42_linear_4382_10326)" stroke-opacity="0.5" stroke-width="0.1875" stroke-miterlimit="10"/>
<path d="M392.114 343.457C475.454 308.918 554.738 262.425 619.763 227.944C645.822 214.094 666.964 202.772 682.698 192.773C692.9 186.164 701.382 180.302 709.372 174.497C718.468 167.888 726.827 161.682 737.644 155.475C757.803 143.866 787.549 130.648 839.422 121.97C875.684 115.936 919.812 113.293 964.801 110.189C969.964 109.844 975.003 109.442 980.166 109.097C1047.16 104.04 1113.78 95.7644 1164.79 81.8568C1181.76 77.2593 1196.75 72.202 1210.03 66.8573C1230.06 58.8691 1246.66 50.1338 1260.06 41.1111C1282.67 26.0542 1294.35 9.79036 1303.69 -8.65728C1316.35 -33.8288 1316.85 -66.5864 1285.25 -97.5049C1282.67 -100.034 1279.85 -102.562 1276.9 -105.091C1253.66 -124.573 1221.09 -141.124 1196.63 -158.48C1186.06 -165.951 1176.84 -173.882 1170.2 -182.157C1161.47 -193.076 1157.79 -204.513 1162.33 -216.121C1170.32 -236.523 1212.61 -256.407 1259.56 -252.385" stroke="url(#paint43_linear_4382_10326)" stroke-opacity="0.5" stroke-width="0.1875" stroke-miterlimit="10"/>
<path d="M415.215 348.63C499.415 315.47 577.224 269.495 637.947 233.634C662.162 219.324 681.338 207.141 694.859 196.106C703.71 188.865 710.593 182.314 716.985 175.82C724.36 168.349 730.998 161.337 740.217 154.269C757.426 140.993 784.837 125.994 835.358 116.224C870.636 109.385 914.273 106.397 958.647 103.236C963.687 102.891 968.726 102.489 973.766 102.144C1039.9 97.1443 1105.78 89.6158 1157.78 76.9726C1174.99 72.7773 1190.48 68.1798 1204.61 63.2949C1225.63 55.9388 1243.7 47.8357 1258.82 39.3877C1284.26 25.1928 1299.63 9.44614 1311.8 -8.71416C1328.76 -33.8857 1332.33 -67.1604 1301.47 -98.1938C1298.89 -100.722 1296.19 -103.309 1293.24 -105.78C1270.25 -125.262 1236.94 -141.526 1211.25 -158.537C1200.19 -165.893 1190.35 -173.708 1182.98 -181.869C1173.39 -192.673 1168.72 -204.11 1172.41 -215.833C1178.92 -236.407 1220.96 -256.809 1267.79 -252.786" stroke="url(#paint44_linear_4382_10326)" stroke-opacity="0.5" stroke-width="0.1875" stroke-miterlimit="10"/>
<path d="M438.355 353.799C523.416 321.961 599.873 276.56 656.17 239.377C678.542 224.55 695.874 211.562 707.182 199.551C714.558 191.678 719.966 184.437 724.883 177.196C730.537 168.92 735.454 161.104 743.075 153.116C757.334 138.232 782.287 121.451 831.578 110.474C865.996 102.888 909.018 99.4973 952.778 96.279C957.818 95.9342 962.734 95.5319 967.651 95.1871C1032.92 90.2447 1098.07 83.5208 1151.05 72.1419C1168.63 68.3489 1184.61 64.2111 1199.36 59.7285C1221.48 53.0621 1241.03 45.5911 1257.74 37.6029C1286.02 24.27 1304.95 9.04063 1320.19 -8.83232C1341.58 -34.0039 1348.09 -67.7958 1317.97 -98.8867C1315.52 -101.473 1312.81 -104.001 1309.86 -106.53C1287 -126.012 1253.07 -141.931 1226.15 -158.655C1214.6 -165.838 1204.15 -173.539 1196.16 -181.642C1185.59 -192.389 1180.06 -203.768 1182.89 -215.549C1188.05 -236.296 1229.72 -257.215 1276.43 -253.134" stroke="url(#paint45_linear_4382_10326)" stroke-opacity="0.5" stroke-width="0.1875" stroke-miterlimit="10"/>
<path d="M461.311 358.968C547.233 328.509 622.214 283.626 674.087 245.121C694.737 229.834 709.979 215.927 719.076 202.996C724.976 194.491 728.786 186.502 732.228 178.629C736.162 169.549 739.358 160.871 745.381 152.021C756.689 135.47 779.307 116.907 827.246 104.839C860.803 96.4481 903.211 92.7125 946.356 89.4368C951.273 89.0345 956.19 88.6897 961.106 88.3449C1025.52 83.46 1089.93 77.5407 1143.77 67.3686C1161.59 63.9779 1178.18 60.2999 1193.67 56.277C1216.78 50.2428 1237.8 43.4039 1256.12 35.9904C1287.09 23.5195 1309.83 8.86483 1327.9 -8.72078C1353.71 -33.8349 1363.18 -68.144 1333.92 -99.4073C1331.47 -101.993 1328.88 -104.522 1325.93 -107.051C1303.32 -126.59 1268.65 -142.164 1240.5 -158.543C1228.46 -165.612 1217.4 -173.14 1208.79 -181.186C1197.36 -191.818 1190.85 -203.197 1192.93 -215.093C1196.62 -235.954 1238.05 -257.448 1284.76 -253.368" stroke="url(#paint46_linear_4382_10326)" stroke-opacity="0.5" stroke-width="0.1875" stroke-miterlimit="10"/>
<path d="M484.432 364.144C571.337 335.065 644.843 290.641 692.29 250.815C711.097 235.011 724.373 220.298 731.379 206.391C735.927 197.253 738.14 188.575 739.984 180.012C742.073 170.128 743.548 160.588 748.096 150.876C756.332 132.658 776.614 112.314 823.324 99.1532C855.898 89.9581 897.814 85.8203 940.344 82.4871C945.138 82.0848 950.055 81.74 954.849 81.3951C1018.28 76.5677 1082.07 71.3955 1136.89 62.4878C1155.09 59.5568 1172.17 56.2811 1188.28 52.6605C1212.49 47.2584 1234.86 41.0518 1254.9 34.1554C1288.7 22.5466 1315.13 8.46666 1336.03 -8.88907C1366.26 -33.8882 1378.68 -68.8296 1350.16 -100.15C1347.83 -102.736 1345.24 -105.265 1342.29 -107.794C1319.92 -127.333 1284.52 -142.62 1255.14 -158.711C1242.61 -165.665 1230.81 -173.079 1221.59 -181.01C1209.29 -191.526 1201.8 -202.848 1203.03 -214.859C1205.36 -235.893 1246.42 -257.846 1293 -253.823" stroke="url(#paint47_linear_4382_10326)" stroke-opacity="0.5" stroke-width="0.1875" stroke-miterlimit="10"/>
<path d="M507.533 369.32C595.299 341.62 667.453 297.771 710.475 256.566C727.438 240.302 738.87 224.728 743.541 209.843C746.614 200.073 747.351 190.706 747.597 181.396C747.966 170.706 747.72 160.304 750.67 149.73C755.956 129.903 773.902 107.778 819.26 93.4677C850.974 83.5255 892.275 78.9854 934.068 75.5947C938.862 75.1924 943.656 74.8477 948.327 74.4454C1010.89 69.6754 1073.95 65.3077 1129.63 57.6643C1148.07 55.1356 1165.77 52.3197 1182.61 49.1589C1207.81 44.4464 1231.66 38.8719 1253.42 32.4928C1290.05 21.746 1320.16 8.29819 1344.01 -8.82766C1378.67 -33.7119 1394.04 -69.2854 1366.26 -100.721C1363.92 -103.307 1361.34 -105.893 1358.51 -108.422C1336.26 -127.962 1300.13 -142.903 1269.64 -158.708C1256.61 -165.489 1244.2 -172.788 1234.36 -180.603C1221.21 -191.005 1212.73 -202.327 1213.22 -214.453C1214.08 -235.659 1254.89 -258.129 1301.35 -254.107" stroke="url(#paint48_linear_4382_10326)" stroke-opacity="0.5" stroke-width="0.1875" stroke-miterlimit="10"/>
<path d="M530.545 374.493C619.171 348.172 689.973 304.783 728.57 262.256C743.812 245.475 753.154 229.038 755.735 213.177C757.333 202.775 756.473 192.718 755.244 182.718C753.892 171.224 751.925 159.96 753.277 148.524C755.612 127.03 771.1 103.123 815.229 87.7214C845.959 76.9747 886.769 72.0898 927.947 68.6417C932.618 68.2394 937.412 67.8946 942.083 67.4923C1003.79 62.7223 1065.99 59.2167 1122.78 52.7801C1141.58 50.6538 1159.65 48.2401 1177.23 45.539C1203.54 41.4587 1228.73 36.5163 1252.21 30.6544C1291.67 20.7697 1325.47 7.8966 1352.15 -8.99936C1391.36 -33.7686 1409.55 -69.9743 1382.51 -101.525C1380.29 -104.111 1377.71 -106.697 1374.89 -109.226C1352.88 -128.765 1316.01 -143.42 1284.42 -158.879C1270.9 -165.546 1257.87 -172.729 1247.42 -180.43C1233.4 -190.717 1223.94 -202.039 1223.57 -214.222C1223.08 -235.601 1263.4 -258.588 1309.86 -254.508" stroke="url(#paint49_linear_4382_10326)" stroke-opacity="0.5" stroke-width="0.1875" stroke-miterlimit="10"/>
<path d="M553.64 379.662C643.126 354.72 712.577 311.848 746.748 267.999C760.147 250.758 767.522 233.46 767.891 216.622C768.137 205.588 765.678 194.841 762.974 184.152C759.778 171.911 756.213 159.785 755.845 147.429C755.23 124.326 768.383 98.5798 811.159 82.0287C841.029 70.4773 881.224 65.1902 921.787 61.742C926.458 61.3397 931.129 60.9949 935.677 60.5926C996.523 55.8802 1057.98 53.1216 1115.76 47.9494C1134.81 46.2253 1153.49 44.2713 1171.69 42.03C1198.97 38.5819 1225.65 34.3291 1250.72 28.927C1293.01 19.9044 1330.38 7.72088 1360.12 -9.06015C1403.76 -33.657 1424.9 -70.4948 1398.72 -102.16C1396.51 -104.747 1394.05 -107.333 1391.22 -109.861C1369.46 -129.401 1331.85 -143.711 1299.03 -158.883C1285.02 -165.377 1271.37 -172.445 1260.19 -180.089C1245.31 -190.318 1234.87 -201.525 1233.76 -213.881C1231.79 -235.432 1271.87 -258.937 1318.21 -254.856" stroke="url(#paint50_linear_4382_10326)" stroke-opacity="0.5" stroke-width="0.1875" stroke-miterlimit="10"/>
<path d="M576.753 384.831C667.1 361.269 735.443 318.914 764.944 273.743C776.622 255.985 782.03 237.882 780.187 220.067C778.957 208.4 774.901 196.964 770.722 185.528C765.805 172.482 760.519 159.494 758.553 146.276C754.988 121.507 765.682 94.0365 807.229 76.3359C836.115 64.0375 875.942 58.348 915.768 54.8424C920.316 54.4401 924.864 54.0378 929.535 53.693C989.52 49.038 1050.24 47.084 1108.88 43.1761C1128.3 41.8543 1147.47 40.3601 1166.4 38.5211C1194.8 35.7626 1222.82 32.0846 1249.62 27.2572C1294.61 19.154 1335.79 7.54517 1368.36 -9.00599C1416.42 -33.373 1440.52 -70.9579 1415.07 -102.738C1412.98 -105.382 1410.52 -107.911 1407.7 -110.439C1386.19 -129.979 1347.71 -144.001 1313.78 -158.886C1299.28 -165.265 1285.02 -172.161 1273.22 -179.747C1257.36 -189.862 1246.06 -201.068 1244.09 -213.482C1240.65 -235.148 1280.47 -259.227 1326.69 -255.147" stroke="url(#paint51_linear_4382_10326)" stroke-opacity="0.5" stroke-width="0.1875" stroke-miterlimit="10"/>
<path d="M599.856 390C726.956 359.082 806.609 290.118 792.227 223.454C786.573 197.018 767.52 171.502 761.005 145.123C754.491 118.745 762.849 89.4356 803.044 70.6432C834.266 56.046 879.378 50.1841 923.015 46.7934C1001.68 40.6442 1081.95 40.6442 1160.74 34.9547C1239.54 29.2653 1319.43 17.0818 1376.22 -9.06673C1433.01 -35.2153 1460.05 -77.9724 1423.92 -111.132C1402.53 -130.729 1363.44 -144.349 1328.28 -158.947C1293.13 -173.486 1259.08 -191.302 1254.16 -213.198C1249.37 -235.036 1288.83 -259.633 1335.04 -255.552" stroke="url(#paint52_linear_4382_10326)" stroke-opacity="0.5" stroke-width="0.1875" stroke-miterlimit="10"/>
<rect width="1440" height="260" fill="url(#paint53_linear_4382_10326)"/>
</g>
<defs>
<linearGradient id="paint0_linear_4382_10326" x1="718.286" y1="291.738" x2="718.286" y2="-249.585" gradientUnits="userSpaceOnUse">
<stop stop-color="white" stop-opacity="0.5"/>
<stop offset="1" stop-color="white" stop-opacity="0.1"/>
</linearGradient>
<linearGradient id="paint1_linear_4382_10326" x1="820.69" y1="373.054" x2="820.69" y2="-196.869" gradientUnits="userSpaceOnUse">
<stop stop-color="white" stop-opacity="0.5"/>
<stop offset="1" stop-color="white" stop-opacity="0.1"/>
</linearGradient>
<linearGradient id="paint2_linear_4382_10326" x1="810.597" y1="368.51" x2="810.597" y2="-198.597" gradientUnits="userSpaceOnUse">
<stop stop-color="white" stop-opacity="0.5"/>
<stop offset="1" stop-color="white" stop-opacity="0.1"/>
</linearGradient>
<linearGradient id="paint3_linear_4382_10326" x1="800.507" y1="364.025" x2="800.507" y2="-200.553" gradientUnits="userSpaceOnUse">
<stop stop-color="white" stop-opacity="0.5"/>
<stop offset="1" stop-color="white" stop-opacity="0.1"/>
</linearGradient>
<linearGradient id="paint4_linear_4382_10326" x1="790.453" y1="359.489" x2="790.453" y2="-202.503" gradientUnits="userSpaceOnUse">
<stop stop-color="white" stop-opacity="0.5"/>
<stop offset="1" stop-color="white" stop-opacity="0.1"/>
</linearGradient>
<linearGradient id="paint5_linear_4382_10326" x1="780.253" y1="354.949" x2="780.253" y2="-204.634" gradientUnits="userSpaceOnUse">
<stop stop-color="white" stop-opacity="0.5"/>
<stop offset="1" stop-color="white" stop-opacity="0.1"/>
</linearGradient>
<linearGradient id="paint6_linear_4382_10326" x1="770.364" y1="350.469" x2="770.364" y2="-206.31" gradientUnits="userSpaceOnUse">
<stop stop-color="white" stop-opacity="0.5"/>
<stop offset="1" stop-color="white" stop-opacity="0.1"/>
</linearGradient>
<linearGradient id="paint7_linear_4382_10326" x1="760.143" y1="345.925" x2="760.143" y2="-208.343" gradientUnits="userSpaceOnUse">
<stop stop-color="white" stop-opacity="0.5"/>
<stop offset="1" stop-color="white" stop-opacity="0.1"/>
</linearGradient>
<linearGradient id="paint8_linear_4382_10326" x1="749.938" y1="341.444" x2="749.938" y2="-210.144" gradientUnits="userSpaceOnUse">
<stop stop-color="white" stop-opacity="0.5"/>
<stop offset="1" stop-color="white" stop-opacity="0.1"/>
</linearGradient>
<linearGradient id="paint9_linear_4382_10326" x1="739.976" y1="336.908" x2="739.976" y2="-212.012" gradientUnits="userSpaceOnUse">
<stop stop-color="white" stop-opacity="0.5"/>
<stop offset="1" stop-color="white" stop-opacity="0.1"/>
</linearGradient>
<linearGradient id="paint10_linear_4382_10326" x1="729.782" y1="332.364" x2="729.782" y2="-214.112" gradientUnits="userSpaceOnUse">
<stop stop-color="white" stop-opacity="0.5"/>
<stop offset="1" stop-color="white" stop-opacity="0.1"/>
</linearGradient>
<linearGradient id="paint11_linear_4382_10326" x1="719.899" y1="327.876" x2="719.899" y2="-216.101" gradientUnits="userSpaceOnUse">
<stop stop-color="white" stop-opacity="0.5"/>
<stop offset="1" stop-color="white" stop-opacity="0.1"/>
</linearGradient>
<linearGradient id="paint12_linear_4382_10326" x1="709.68" y1="323.34" x2="709.68" y2="-218.025" gradientUnits="userSpaceOnUse">
<stop stop-color="white" stop-opacity="0.5"/>
<stop offset="1" stop-color="white" stop-opacity="0.1"/>
</linearGradient>
<linearGradient id="paint13_linear_4382_10326" x1="699.791" y1="318.792" x2="699.791" y2="-219.962" gradientUnits="userSpaceOnUse">
<stop stop-color="white" stop-opacity="0.5"/>
<stop offset="1" stop-color="white" stop-opacity="0.1"/>
</linearGradient>
<linearGradient id="paint14_linear_4382_10326" x1="689.577" y1="314.323" x2="689.577" y2="-222.006" gradientUnits="userSpaceOnUse">
<stop stop-color="white" stop-opacity="0.5"/>
<stop offset="1" stop-color="white" stop-opacity="0.1"/>
</linearGradient>
<linearGradient id="paint15_linear_4382_10326" x1="679.523" y1="309.779" x2="679.523" y2="-223.883" gradientUnits="userSpaceOnUse">
<stop stop-color="white" stop-opacity="0.5"/>
<stop offset="1" stop-color="white" stop-opacity="0.1"/>
</linearGradient>
<linearGradient id="paint16_linear_4382_10326" x1="669.366" y1="305.239" x2="669.366" y2="-225.93" gradientUnits="userSpaceOnUse">
<stop stop-color="white" stop-opacity="0.5"/>
<stop offset="1" stop-color="white" stop-opacity="0.1"/>
</linearGradient>
<linearGradient id="paint17_linear_4382_10326" x1="659.41" y1="300.755" x2="659.41" y2="-227.705" gradientUnits="userSpaceOnUse">
<stop stop-color="white" stop-opacity="0.5"/>
<stop offset="1" stop-color="white" stop-opacity="0.1"/>
</linearGradient>
<linearGradient id="paint18_linear_4382_10326" x1="649.289" y1="296.218" x2="649.289" y2="-229.681" gradientUnits="userSpaceOnUse">
<stop stop-color="white" stop-opacity="0.5"/>
<stop offset="1" stop-color="white" stop-opacity="0.1"/>
</linearGradient>
<linearGradient id="paint19_linear_4382_10326" x1="642.188" y1="291.734" x2="642.188" y2="-231.618" gradientUnits="userSpaceOnUse">
<stop stop-color="white" stop-opacity="0.5"/>
<stop offset="1" stop-color="white" stop-opacity="0.1"/>
</linearGradient>
<linearGradient id="paint20_linear_4382_10326" x1="643.408" y1="287.187" x2="643.408" y2="-233.688" gradientUnits="userSpaceOnUse">
<stop stop-color="white" stop-opacity="0.5"/>
<stop offset="1" stop-color="white" stop-opacity="0.1"/>
</linearGradient>
<linearGradient id="paint21_linear_4382_10326" x1="644.585" y1="282.65" x2="644.585" y2="-235.619" gradientUnits="userSpaceOnUse">
<stop stop-color="white" stop-opacity="0.5"/>
<stop offset="1" stop-color="white" stop-opacity="0.1"/>
</linearGradient>
<linearGradient id="paint22_linear_4382_10326" x1="645.784" y1="278.169" x2="645.784" y2="-237.495" gradientUnits="userSpaceOnUse">
<stop stop-color="white" stop-opacity="0.5"/>
<stop offset="1" stop-color="white" stop-opacity="0.1"/>
</linearGradient>
<linearGradient id="paint23_linear_4382_10326" x1="646.968" y1="273.629" x2="646.968" y2="-239.56" gradientUnits="userSpaceOnUse">
<stop stop-color="white" stop-opacity="0.5"/>
<stop offset="1" stop-color="white" stop-opacity="0.1"/>
</linearGradient>
<linearGradient id="paint24_linear_4382_10326" x1="648.229" y1="269.093" x2="648.229" y2="-241.423" gradientUnits="userSpaceOnUse">
<stop stop-color="white" stop-opacity="0.5"/>
<stop offset="1" stop-color="white" stop-opacity="0.1"/>
</linearGradient>
<linearGradient id="paint25_linear_4382_10326" x1="649.523" y1="264.605" x2="649.523" y2="-243.365" gradientUnits="userSpaceOnUse">
<stop stop-color="white" stop-opacity="0.5"/>
<stop offset="1" stop-color="white" stop-opacity="0.1"/>
</linearGradient>
<linearGradient id="paint26_linear_4382_10326" x1="650.649" y1="260.065" x2="650.649" y2="-245.374" gradientUnits="userSpaceOnUse">
<stop stop-color="white" stop-opacity="0.5"/>
<stop offset="1" stop-color="white" stop-opacity="0.1"/>
</linearGradient>
<linearGradient id="paint27_linear_4382_10326" x1="651.931" y1="255.529" x2="651.931" y2="-247.422" gradientUnits="userSpaceOnUse">
<stop stop-color="white" stop-opacity="0.5"/>
<stop offset="1" stop-color="white" stop-opacity="0.1"/>
</linearGradient>
<linearGradient id="paint28_linear_4382_10326" x1="661.094" y1="260.698" x2="661.094" y2="-247.689" gradientUnits="userSpaceOnUse">
<stop stop-color="white" stop-opacity="0.5"/>
<stop offset="1" stop-color="white" stop-opacity="0.1"/>
</linearGradient>
<linearGradient id="paint29_linear_4382_10326" x1="669.978" y1="265.871" x2="669.978" y2="-247.992" gradientUnits="userSpaceOnUse">
<stop stop-color="white" stop-opacity="0.5"/>
<stop offset="1" stop-color="white" stop-opacity="0.1"/>
</linearGradient>
<linearGradient id="paint30_linear_4382_10326" x1="679.452" y1="271.043" x2="679.452" y2="-248.273" gradientUnits="userSpaceOnUse">
<stop stop-color="white" stop-opacity="0.5"/>
<stop offset="1" stop-color="white" stop-opacity="0.1"/>
</linearGradient>
<linearGradient id="paint31_linear_4382_10326" x1="688.951" y1="276.216" x2="688.951" y2="-248.654" gradientUnits="userSpaceOnUse">
<stop stop-color="white" stop-opacity="0.5"/>
<stop offset="1" stop-color="white" stop-opacity="0.1"/>
</linearGradient>
<linearGradient id="paint32_linear_4382_10326" x1="698.424" y1="281.385" x2="698.424" y2="-249.039" gradientUnits="userSpaceOnUse">
<stop stop-color="white" stop-opacity="0.5"/>
<stop offset="1" stop-color="white" stop-opacity="0.1"/>
</linearGradient>
<linearGradient id="paint33_linear_4382_10326" x1="708.375" y1="286.558" x2="708.375" y2="-249.307" gradientUnits="userSpaceOnUse">
<stop stop-color="white" stop-opacity="0.5"/>
<stop offset="1" stop-color="white" stop-opacity="0.1"/>
</linearGradient>
<linearGradient id="paint34_linear_4382_10326" x1="728.615" y1="296.91" x2="728.615" y2="-249.911" gradientUnits="userSpaceOnUse">
<stop stop-color="white" stop-opacity="0.5"/>
<stop offset="1" stop-color="white" stop-opacity="0.1"/>
</linearGradient>
<linearGradient id="paint35_linear_4382_10326" x1="739.323" y1="302.079" x2="739.323" y2="-250.472" gradientUnits="userSpaceOnUse">
<stop stop-color="white" stop-opacity="0.5"/>
<stop offset="1" stop-color="white" stop-opacity="0.1"/>
</linearGradient>
<linearGradient id="paint36_linear_4382_10326" x1="750.406" y1="307.248" x2="750.406" y2="-250.632" gradientUnits="userSpaceOnUse">
<stop stop-color="white" stop-opacity="0.5"/>
<stop offset="1" stop-color="white" stop-opacity="0.1"/>
</linearGradient>
<linearGradient id="paint37_linear_4382_10326" x1="761.869" y1="312.421" x2="761.869" y2="-250.977" gradientUnits="userSpaceOnUse">
<stop stop-color="white" stop-opacity="0.5"/>
<stop offset="1" stop-color="white" stop-opacity="0.1"/>
</linearGradient>
<linearGradient id="paint38_linear_4382_10326" x1="774.095" y1="317.594" x2="774.095" y2="-251.178" gradientUnits="userSpaceOnUse">
<stop stop-color="white" stop-opacity="0.5"/>
<stop offset="1" stop-color="white" stop-opacity="0.1"/>
</linearGradient>
<linearGradient id="paint39_linear_4382_10326" x1="787.115" y1="322.766" x2="787.115" y2="-251.624" gradientUnits="userSpaceOnUse">
<stop stop-color="white" stop-opacity="0.5"/>
<stop offset="1" stop-color="white" stop-opacity="0.1"/>
</linearGradient>
<linearGradient id="paint40_linear_4382_10326" x1="801.388" y1="327.946" x2="801.388" y2="-252.005" gradientUnits="userSpaceOnUse">
<stop stop-color="white" stop-opacity="0.5"/>
<stop offset="1" stop-color="white" stop-opacity="0.1"/>
</linearGradient>
<linearGradient id="paint41_linear_4382_10326" x1="817.403" y1="333.108" x2="817.403" y2="-252.303" gradientUnits="userSpaceOnUse">
<stop stop-color="white" stop-opacity="0.5"/>
<stop offset="1" stop-color="white" stop-opacity="0.1"/>
</linearGradient>
<linearGradient id="paint42_linear_4382_10326" x1="834.502" y1="338.284" x2="834.502" y2="-252.517" gradientUnits="userSpaceOnUse">
<stop stop-color="white" stop-opacity="0.5"/>
<stop offset="1" stop-color="white" stop-opacity="0.1"/>
</linearGradient>
<linearGradient id="paint43_linear_4382_10326" x1="851.943" y1="343.457" x2="851.943" y2="-252.907" gradientUnits="userSpaceOnUse">
<stop stop-color="white" stop-opacity="0.5"/>
<stop offset="1" stop-color="white" stop-opacity="0.1"/>
</linearGradient>
<linearGradient id="paint44_linear_4382_10326" x1="869.936" y1="348.63" x2="869.936" y2="-253.298" gradientUnits="userSpaceOnUse">
<stop stop-color="white" stop-opacity="0.5"/>
<stop offset="1" stop-color="white" stop-opacity="0.1"/>
</linearGradient>
<linearGradient id="paint45_linear_4382_10326" x1="888.392" y1="353.799" x2="888.392" y2="-253.648" gradientUnits="userSpaceOnUse">
<stop stop-color="white" stop-opacity="0.5"/>
<stop offset="1" stop-color="white" stop-opacity="0.1"/>
</linearGradient>
<linearGradient id="paint46_linear_4382_10326" x1="906.638" y1="358.968" x2="906.638" y2="-253.87" gradientUnits="userSpaceOnUse">
<stop stop-color="white" stop-opacity="0.5"/>
<stop offset="1" stop-color="white" stop-opacity="0.1"/>
</linearGradient>
<linearGradient id="paint47_linear_4382_10326" x1="925.326" y1="364.144" x2="925.326" y2="-254.304" gradientUnits="userSpaceOnUse">
<stop stop-color="white" stop-opacity="0.5"/>
<stop offset="1" stop-color="white" stop-opacity="0.1"/>
</linearGradient>
<linearGradient id="paint48_linear_4382_10326" x1="944.066" y1="369.32" x2="944.066" y2="-254.578" gradientUnits="userSpaceOnUse">
<stop stop-color="white" stop-opacity="0.5"/>
<stop offset="1" stop-color="white" stop-opacity="0.1"/>
</linearGradient>
<linearGradient id="paint49_linear_4382_10326" x1="962.959" y1="374.493" x2="962.959" y2="-254.983" gradientUnits="userSpaceOnUse">
<stop stop-color="white" stop-opacity="0.5"/>
<stop offset="1" stop-color="white" stop-opacity="0.1"/>
</linearGradient>
<linearGradient id="paint50_linear_4382_10326" x1="981.908" y1="379.662" x2="981.908" y2="-255.322" gradientUnits="userSpaceOnUse">
<stop stop-color="white" stop-opacity="0.5"/>
<stop offset="1" stop-color="white" stop-opacity="0.1"/>
</linearGradient>
<linearGradient id="paint51_linear_4382_10326" x1="1001.05" y1="384.831" x2="1001.05" y2="-255.603" gradientUnits="userSpaceOnUse">
<stop stop-color="white" stop-opacity="0.5"/>
<stop offset="1" stop-color="white" stop-opacity="0.1"/>
</linearGradient>
<linearGradient id="paint52_linear_4382_10326" x1="1020.08" y1="390" x2="1020.08" y2="-256" gradientUnits="userSpaceOnUse">
<stop stop-color="white" stop-opacity="0.5"/>
<stop offset="1" stop-color="white" stop-opacity="0.1"/>
</linearGradient>
<linearGradient id="paint53_linear_4382_10326" x1="601" y1="-43.5" x2="603" y2="260" gradientUnits="userSpaceOnUse">
<stop stop-color="#020A19"/>
<stop offset="0.990494" stop-color="#020219" stop-opacity="0"/>
</linearGradient>
<clipPath id="clip0_4382_10326">
<rect width="261" height="1440" fill="white" transform="matrix(0 1 -1 0 1440 0)"/>
</clipPath>
</defs>
</svg>
