<svg width="64" height="64" viewBox="0 0 64 64" fill="none" xmlns="http://www.w3.org/2000/svg">
<g filter="url(#filter0_b_6501_6248)">
<circle cx="32" cy="32" r="32" fill="#142A44"/>
<circle cx="32" cy="32" r="31.3333" stroke="url(#paint0_linear_6501_6248)" stroke-width="1.33333"/>
</g>
<g filter="url(#filter1_i_6501_6248)">
<path d="M12.0015 32C12.0015 21.6797 20.2907 12.0007 32.0023 12.0007C37.5216 12.0007 41.671 14.288 44.0378 16.0387C44.7632 16.5752 44.3775 17.718 43.4758 17.7148C43.4615 17.7148 43.4457 17.7148 43.4314 17.7148C35.8311 17.7148 29.1451 23.7527 29.1451 32C29.1451 37.2427 24.8068 40.5711 20.5733 40.5711C16.3397 40.5711 12.0015 37.1982 12.0015 32ZM31.9991 51.9993C26.4799 51.9993 22.3305 49.7121 19.9637 47.9613C19.2383 47.4248 19.624 46.282 20.5256 46.2852C20.5399 46.2852 20.5558 46.2852 20.5701 46.2852C28.1704 46.2852 34.8564 40.2473 34.8564 32C34.8564 26.7573 39.1947 23.4289 43.4282 23.4289C47.6617 23.4289 52 26.8018 52 32C52 42.3203 43.7108 51.9993 31.9991 51.9993Z" fill="url(#paint1_linear_6501_6248)"/>
</g>
<defs>
<filter id="filter0_b_6501_6248" x="-103.707" y="-103.707" width="271.413" height="271.413" filterUnits="userSpaceOnUse" color-interpolation-filters="sRGB">
<feFlood flood-opacity="0" result="BackgroundImageFix"/>
<feGaussianBlur in="BackgroundImageFix" stdDeviation="51.8533"/>
<feComposite in2="SourceAlpha" operator="in" result="effect1_backgroundBlur_6501_6248"/>
<feBlend mode="normal" in="SourceGraphic" in2="effect1_backgroundBlur_6501_6248" result="shape"/>
</filter>
<filter id="filter1_i_6501_6248" x="12.0015" y="12.0007" width="39.9985" height="40.9985" filterUnits="userSpaceOnUse" color-interpolation-filters="sRGB">
<feFlood flood-opacity="0" result="BackgroundImageFix"/>
<feBlend mode="normal" in="SourceGraphic" in2="BackgroundImageFix" result="shape"/>
<feColorMatrix in="SourceAlpha" type="matrix" values="0 0 0 0 0 0 0 0 0 0 0 0 0 0 0 0 0 0 127 0" result="hardAlpha"/>
<feOffset dy="1"/>
<feGaussianBlur stdDeviation="0.5"/>
<feComposite in2="hardAlpha" operator="arithmetic" k2="-1" k3="1"/>
<feColorMatrix type="matrix" values="0 0 0 0 1 0 0 0 0 1 0 0 0 0 1 0 0 0 0.25 0"/>
<feBlend mode="normal" in2="shape" result="effect1_innerShadow_6501_6248"/>
</filter>
<linearGradient id="paint0_linear_6501_6248" x1="32" y1="0" x2="64" y2="74.5" gradientUnits="userSpaceOnUse">
<stop stop-color="#2369FF"/>
<stop offset="1" stop-color="#3EC5FF" stop-opacity="0"/>
<stop offset="1" stop-color="#3EC5FF" stop-opacity="0"/>
<stop offset="1" stop-color="#8FDCF4"/>
</linearGradient>
<linearGradient id="paint1_linear_6501_6248" x1="34.4997" y1="12.0007" x2="34.4967" y2="51.9993" gradientUnits="userSpaceOnUse">
<stop stop-color="#427FFF"/>
<stop offset="1" stop-color="#2369FF"/>
</linearGradient>
</defs>
</svg>
