<svg
    width="100%"
    height="100%"
    viewBox="0 0 40 40"
    fill="none"
    xmlns="http://www.w3.org/2000/svg"
  >
    <g clipPath="url(#clip0_4759_6513)">
      <path
        d="M20.0162 40C14.5016 40 10.3558 37.7145 7.99102 35.9651C7.26621 35.4291 7.65161 34.2871 8.55247 34.2903C8.56674 34.2903 8.5826 34.2903 8.59688 34.2903C16.1907 34.2903 22.871 28.2571 22.871 20.0162C22.871 14.7775 27.2056 11.4517 31.4355 11.4517C35.6654 11.4517 40 14.8219 40 20.0162C40 30.3284 31.7178 40 20.0162 40Z"
        fill="#2369FF"
      />
      <path
        opacity="0.3"
        d="M12.7587 37.835C5.9468 33.9651 19.1948 35.2133 22.3351 24.7377C23.2169 22.1446 22.7871 19.2754 23.8688 16.7695C26.2431 10.8474 35.0613 10.1083 38.3856 15.5626C44.7424 29.7321 26.14 45.0752 12.7587 37.835Z"
        fill="white"
      />
      <path
        opacity="0.3"
        d="M13.9339 37.7113C8.50972 35.1737 21.7514 31.7035 22.6062 24.4776C23.3564 22.0938 23.0852 19.4769 24.0067 17.1613C26.124 11.3803 34.5791 10.3541 37.9858 15.5023C44.6709 28.7376 26.6775 44.6501 13.9339 37.7113Z"
        fill="white"
      />
      <path
        opacity="0.3"
        d="M16.1116 37.8874C9.97848 35.5004 21.8657 31.2927 23.06 23.8242C23.6468 21.599 23.5072 19.174 24.4715 17.0566C29.3406 7.93069 40.8424 13.7799 38.909 23.1533C37.5435 33.3561 26.14 41.789 16.1116 37.8874Z"
        fill="white"
      />
      <path
        opacity="0.3"
        d="M16.2781 35.6923C16.2781 35.6923 16.2781 35.6844 16.2781 35.6812C16.3351 35.1229 16.5366 34.5869 16.8681 34.1349C17.9228 32.7011 19.366 31.4989 20.4096 30.0604C21.7038 28.2761 22.6998 26.2968 23.3025 24.1747C24.5729 19.7037 24.4762 14.1495 30.2984 13.1867C36.1001 12.2272 39.1484 17.7561 38.5188 22.7806C37.9351 27.4308 35.3705 31.7622 31.691 34.6376C28.0114 37.5131 22.6681 39.2942 18.1908 37.6844C17.6848 37.502 17.2011 37.291 16.7872 36.9516C16.711 36.8898 16.646 36.8184 16.5857 36.7407C16.5842 36.7391 16.5826 36.7359 16.581 36.7343C16.3494 36.4393 16.24 36.0666 16.2781 35.6939V35.6923Z"
        fill="white"
      />
      <path
        opacity="0.3"
        d="M18.7206 36.3933C18.5651 36.2918 18.2844 35.9223 18.2527 35.8414C18.2019 35.7129 18.1004 35.4845 18.1004 35.2768C18.1004 35.069 18.1004 34.9992 18.1575 34.7534C18.7808 32.8613 20.3573 31.2832 21.3946 29.5941C22.3414 28.0509 23.098 26.3951 23.6309 24.6631C24.8981 20.5474 24.7934 15.1692 30.0178 13.9813C35.2421 12.7934 38.3777 17.7418 37.9923 22.3586C37.6259 26.7361 35.2913 30.9089 31.9432 33.7129C28.8885 36.2712 22.4509 39.2466 18.7237 36.3901L18.7206 36.3933Z"
        fill="white"
      />
      <path
        opacity="0.3"
        d="M20.8014 35.4417C20.573 35.253 20.397 34.9913 20.305 34.7058C19.9354 32.9025 21.6198 30.8312 22.389 29.2896C23.1582 27.748 23.7926 26.2095 24.27 24.5791C25.3295 20.963 25.6023 16.1526 29.9908 15.0059C35.0486 13.6847 37.6877 18.8266 37.1532 23.1009C36.6727 26.9343 34.5807 30.5441 31.6339 33.0151C29.2295 35.0325 23.7308 37.9254 20.7998 35.4417H20.8014Z"
        fill="white"
      />
      <path
        opacity="0.3"
        d="M22.9806 33.8763C21.5119 31.9763 24.3652 27.1659 24.9663 25.1516C25.7926 22.3825 26.1621 18.7521 28.7711 17.0043C32.2635 14.6649 35.8686 17.7005 36.1683 21.3737C36.4268 24.5426 35.02 27.8035 33.0344 30.2047C31.0693 32.5805 26.676 35.9032 23.4088 34.2189L23.3121 34.165C23.1836 34.092 23.071 33.9937 22.9806 33.8763Z"
        fill="white"
      />
      <path
        opacity="0.3"
        d="M25.4516 31.1865C24.8172 29.4165 25.7656 27.0819 26.2367 25.361C26.7854 23.3579 27.2787 20.9233 28.8124 19.4087C30.9408 17.3056 33.8718 18.5998 34.4792 21.3627C34.9883 23.6751 34.1065 26.2444 32.8091 28.1492C31.507 30.0588 29.3421 32.016 26.9012 32.0413C26.9012 32.0413 26.4809 32.008 26.3239 31.943C26.1669 31.878 25.9528 31.8018 25.8291 31.6797C25.8291 31.6797 25.5721 31.4561 25.4516 31.1896V31.1865Z"
        fill="white"
      />
    </g>
    <g clipPath="url(#clip1_4759_6513)">
      <path
        d="M19.984 -3.05176e-05C25.4986 -3.05176e-05 29.6444 2.28542 32.0092 4.0348C32.734 4.57087 32.3486 5.7128 31.4477 5.70963C31.4335 5.70963 31.4176 5.70963 31.4033 5.70963C23.8095 5.70963 17.1292 11.7428 17.1292 19.9838C17.1292 25.2224 12.7946 28.5483 8.56468 28.5483C4.33478 28.5483 0.000190735 25.178 0.000190735 19.9838C0.000190735 9.6715 8.28238 -3.05176e-05 19.984 -3.05176e-05Z"
        fill="#2369FF"
      />
      <path
        opacity="0.3"
        d="M27.2416 2.16488C34.0535 6.03477 20.8055 4.78657 17.6652 15.2622C16.7834 17.8554 17.2132 20.7245 16.1315 23.2304C13.7572 29.1526 4.93898 29.8916 1.61469 24.4373C-4.74207 10.2678 13.8603 -5.07529 27.2416 2.16488Z"
        fill="white"
      />
      <path
        opacity="0.3"
        d="M26.0664 2.2886C31.4906 4.82622 18.2489 8.29643 17.3941 15.5223C16.6439 17.9061 16.9151 20.523 15.9936 22.8386C13.8763 28.6197 5.42122 29.6458 2.01446 24.4976C-4.6706 11.2623 13.3228 -4.65023 26.0664 2.2886Z"
        fill="white"
      />
      <path
        opacity="0.3"
        d="M23.8887 2.11252C30.0218 4.49948 18.1346 8.70718 16.9404 16.1757C16.3535 18.4009 16.4931 20.8259 15.5288 22.9433C10.6597 32.0692 -0.842073 26.22 1.09128 16.8466C2.45684 6.64377 13.8603 -1.78908 23.8887 2.11252Z"
        fill="white"
      />
      <path
        opacity="0.3"
        d="M23.7223 4.30759C23.7223 4.30759 23.7223 4.31552 23.7223 4.31869C23.6652 4.87697 23.4638 5.41304 23.1323 5.86506C22.0776 7.29881 20.6343 8.50101 19.5907 9.93953C18.2965 11.7238 17.3005 13.7032 16.6978 15.8252C15.4274 20.2962 15.5242 25.8505 9.70189 26.8132C3.90024 27.7727 0.851917 22.2439 1.48157 17.2194C2.06522 12.5691 4.62981 8.23774 8.30937 5.36229C11.9889 2.48684 17.3322 0.705742 21.8095 2.31555C22.3155 2.49794 22.7992 2.70888 23.2132 3.04829C23.2893 3.11014 23.3543 3.18151 23.4146 3.25923C23.4162 3.26081 23.4178 3.26399 23.4194 3.26557C23.6509 3.56057 23.7603 3.93328 23.7223 4.306V4.30759Z"
        fill="white"
      />
      <path
        opacity="0.3"
        d="M21.2797 3.60657C21.4352 3.70807 21.7159 4.07761 21.7476 4.1585C21.7984 4.28697 21.8999 4.51535 21.8999 4.72312C21.8999 4.93089 21.8999 5.00068 21.8428 5.24651C21.2195 7.13863 19.643 8.71671 18.6057 10.4058C17.6589 11.949 16.9023 13.6048 16.3694 15.3367C15.1022 19.4525 15.2069 24.8306 9.98254 26.0186C4.7582 27.2065 1.62264 22.2581 2.00804 17.6412C2.37441 13.2638 4.70903 9.09101 8.05711 6.28693C11.1118 3.72869 17.5494 0.753321 21.2766 3.60974L21.2797 3.60657Z"
        fill="white"
      />
      <path
        opacity="0.3"
        d="M19.1989 4.55819C19.4273 4.74693 19.6034 5.00862 19.6953 5.2941C20.0649 7.0974 18.3805 9.16874 17.6113 10.7103C16.8421 12.252 16.2077 13.7904 15.7303 15.4208C14.6708 19.0369 14.398 23.8473 10.0095 24.994C4.95173 26.3152 2.3126 21.1733 2.84709 16.899C3.32765 13.0656 5.41961 9.45581 8.36643 6.98479C10.7708 4.96738 16.2696 2.07449 19.2005 4.55819H19.1989Z"
        fill="white"
      />
      <path
        opacity="0.3"
        d="M17.0197 6.12359C18.4884 8.02364 15.6351 12.834 15.034 14.8483C14.2077 17.6175 13.8382 21.2479 11.2292 22.9956C7.73676 25.335 4.13174 22.2994 3.83198 18.6262C3.57346 15.4573 4.98026 12.1965 6.96595 9.79522C8.93103 7.41936 13.3243 4.09666 16.5915 5.78101L16.6882 5.83493C16.8167 5.90789 16.9293 6.00622 17.0197 6.12359Z"
        fill="white"
      />
      <path
        opacity="0.3"
        d="M14.5487 8.81344C15.1831 10.5834 14.2347 12.9181 13.7637 14.6389C13.2149 16.642 12.7216 19.0766 11.188 20.5912C9.05952 22.6943 6.12857 21.4001 5.52112 18.6372C5.01201 16.3248 5.89384 13.7555 7.1912 11.8507C8.49332 9.9411 10.6582 7.98396 13.0991 7.95858C13.0991 7.95858 13.5194 7.99189 13.6764 8.05691C13.8334 8.12194 14.0475 8.19807 14.1713 8.32019C14.1713 8.32019 14.4282 8.54382 14.5487 8.81027V8.81344Z"
        fill="white"
      />
    </g>
    <defs>
      <clipPath id="clip0_4759_6513">
        <rect
          width="32.3881"
          height="28.5483"
          fill="white"
          transform="translate(7.61203 11.4517)"
        />
      </clipPath>
      <clipPath id="clip1_4759_6513">
        <rect
          width="32.3881"
          height="28.5483"
          fill="white"
          transform="matrix(-1 0 0 -1 32.3881 28.5483)"
        />
      </clipPath>
    </defs>
  </svg>